<svg width="29" height="29" viewBox="0 0 29 29" fill="none" xmlns="http://www.w3.org/2000/svg">
<rect width="28" height="28" fill="black"/>
<g filter="url(#filter0_d_30_9)">
<path d="M22.8671 13.6943L22.7795 13.5314L22.6082 13.4537C22.5816 13.4405 22.3246 13.3249 21.8773 13.1545C21.6412 13.0636 21.3442 12.9575 21.0054 12.842C20.2497 12.5883 19.256 12.2928 18.0644 12.0314C17.1622 11.8326 16.1475 11.6565 15.0473 11.5352C12.0149 12.4481 9.49459 13.8553 7.63861 15.1317C11.7027 13.8553 15.6298 13.9121 18.7269 14.3704C19.5054 14.27 20.3068 14.2037 21.1311 14.1885C21.2567 14.1867 21.3842 14.1867 21.508 14.1847C21.645 14.1829 21.7802 14.1791 21.9191 14.181L23.1165 14.2018C23.0384 14.0295 22.9566 13.8609 22.8671 13.6943Z" fill="#5EF6FF"/>
<path d="M22.8671 13.6943L22.7795 13.5314L22.6082 13.4537C22.5816 13.4405 22.3246 13.3249 21.8773 13.1545C21.6412 13.0636 21.3442 12.9575 21.0054 12.842C20.2497 12.5883 19.256 12.2928 18.0644 12.0314C17.1622 11.8326 16.1475 11.6565 15.0473 11.5352C12.0149 12.4481 9.49459 13.8553 7.63861 15.1317C11.7027 13.8553 15.6298 13.9121 18.7269 14.3704C19.5054 14.27 20.3068 14.2037 21.1311 14.1885C21.2567 14.1867 21.3842 14.1867 21.508 14.1847C21.645 14.1829 21.7802 14.1791 21.9191 14.181L23.1165 14.2018C23.0384 14.0295 22.9566 13.8609 22.8671 13.6943Z" fill="white"/>
<path fill-rule="evenodd" clip-rule="evenodd" d="M23.4021 7.00123C23.1393 6.99744 22.8824 7.00312 22.6235 7.0088C16.9699 7.11865 12.3633 9.45946 9.39563 11.5124C9.33281 11.556 9.26428 11.6014 9.20337 11.645C7.7757 12.6506 6.74206 13.5711 6.15767 14.1316C5.81503 14.4593 5.62848 14.6638 5.60754 14.6865L5.4819 14.8248L5.46478 15.0104C5.45716 15.1013 5.45145 15.1922 5.44574 15.2812C5.40767 15.8569 5.41909 16.4383 5.47049 17.0217C6.06249 16.499 6.85437 15.8475 7.84042 15.1543C7.85184 15.1467 7.86517 15.1372 7.87659 15.1297C9.71163 13.8419 12.1996 12.4253 15.1939 11.5048C17.0366 10.9386 19.0695 10.5598 21.2605 10.5181C21.3843 10.5162 21.5099 10.5162 21.6336 10.5143C22.9147 8.91403 23.777 7.96142 23.8037 7.93111L24.6279 7.02395L23.4021 7.00123ZM21.982 14.1695C21.845 14.1676 21.7098 14.1714 21.5746 14.1733C21.4509 14.1752 21.3253 14.1752 21.2015 14.1771C20.3868 14.1922 19.5968 14.2604 18.8278 14.3608C14.1431 14.9763 10.3227 17.0235 7.78141 18.8133C6.79537 19.5064 6.00348 20.1579 5.41147 20.6806C5.14497 20.9154 4.91655 21.1276 4.73571 21.3018C4.39497 21.6294 4.20652 21.8339 4.18558 21.8548L4.05995 21.9931L4.04281 22.1786C3.98 22.8434 3.98951 23.5157 4.05043 24.1899C4.64244 23.6672 5.43432 23.0176 6.42036 22.3226C9.37848 20.2393 14.067 17.7981 19.8405 17.6864C19.9642 17.6845 20.0899 17.6845 20.2136 17.6826C21.39 16.213 22.2104 15.2926 22.357 15.1278C22.3703 15.1127 22.3798 15.1032 22.3817 15.0994L23.1774 14.2244C23.1717 14.2131 23.1679 14.2017 23.1622 14.1922L21.982 14.1695Z" fill="#5EF6FF"/>
</g>
<defs>
<filter id="filter0_d_30_9" x="0" y="3" width="28.6279" height="25.1899" filterUnits="userSpaceOnUse" color-interpolation-filters="sRGB">
<feFlood flood-opacity="0" result="BackgroundImageFix"/>
<feColorMatrix in="SourceAlpha" type="matrix" values="0 0 0 0 0 0 0 0 0 0 0 0 0 0 0 0 0 0 127 0" result="hardAlpha"/>
<feOffset/>
<feGaussianBlur stdDeviation="2"/>
<feComposite in2="hardAlpha" operator="out"/>
<feColorMatrix type="matrix" values="0 0 0 0 0.368627 0 0 0 0 0.964706 0 0 0 0 1 0 0 0 0.5 0"/>
<feBlend mode="normal" in2="BackgroundImageFix" result="effect1_dropShadow_30_9"/>
<feBlend mode="normal" in="SourceGraphic" in2="effect1_dropShadow_30_9" result="shape"/>
</filter>
</defs>
</svg>
