<svg width="105" height="29" viewBox="0 0 105 29" fill="none" xmlns="http://www.w3.org/2000/svg">
<g opacity="0.7">
<rect x="14.3848" y="1.32234" width="19" height="19" transform="rotate(45 14.3848 1.32234)" stroke="#5EF6FF"/>
<path d="M18.9756 13.8943L18.9247 13.7995L18.8251 13.7544C18.8096 13.7467 18.66 13.6794 18.3998 13.5803C18.2625 13.5274 18.0897 13.4657 17.8926 13.3985C17.453 13.2509 16.875 13.079 16.1818 12.927C15.6569 12.8113 15.0666 12.7088 14.4266 12.6383C12.6626 13.1693 11.1964 13.9879 10.1167 14.7305C12.4809 13.9879 14.7654 14.021 16.5671 14.2876C17.02 14.2292 17.4862 14.1907 17.9657 14.1818C18.0388 14.1807 18.113 14.1807 18.185 14.1796C18.2647 14.1785 18.3433 14.1763 18.4242 14.1774L19.1207 14.1896C19.0753 14.0893 19.0277 13.9912 18.9756 13.8943Z" fill="#94C5EB"/>
<path d="M18.9756 13.8943L18.9247 13.7995L18.8251 13.7544C18.8096 13.7467 18.66 13.6794 18.3998 13.5803C18.2625 13.5274 18.0897 13.4657 17.8926 13.3985C17.453 13.2509 16.875 13.079 16.1818 12.927C15.6569 12.8113 15.0666 12.7088 14.4266 12.6383C12.6626 13.1693 11.1964 13.9879 10.1167 14.7305C12.4809 13.9879 14.7654 14.021 16.5671 14.2876C17.02 14.2292 17.4862 14.1907 17.9657 14.1818C18.0388 14.1807 18.113 14.1807 18.185 14.1796C18.2647 14.1785 18.3433 14.1763 18.4242 14.1774L19.1207 14.1896C19.0753 14.0893 19.0277 13.9912 18.9756 13.8943Z" fill="#BEFBFF"/>
<path fill-rule="evenodd" clip-rule="evenodd" d="M19.2869 10.0007C19.134 9.99851 18.9845 10.0018 18.8339 10.0051C15.5451 10.069 12.8652 11.4308 11.1388 12.625C11.1023 12.6504 11.0624 12.6768 11.027 12.7021C10.1965 13.2872 9.59516 13.8226 9.2552 14.1487C9.05587 14.3393 8.94734 14.4583 8.93516 14.4715L8.86208 14.552L8.85211 14.6599C8.84768 14.7128 8.84436 14.7657 8.84104 14.8175C8.81889 15.1524 8.82554 15.4906 8.85543 15.83C9.19983 15.5259 9.66049 15.1469 10.2341 14.7437C10.2408 14.7392 10.2485 14.7337 10.2551 14.7293C11.3227 13.9802 12.77 13.1561 14.5119 12.6206C15.5838 12.2912 16.7665 12.0709 18.041 12.0466C18.113 12.0455 18.1861 12.0455 18.2581 12.0444C19.0034 11.1135 19.505 10.5593 19.5205 10.5417L20 10.0139L19.2869 10.0007ZM18.4608 14.1707C18.381 14.1697 18.3024 14.1719 18.2238 14.1729C18.1518 14.1741 18.0787 14.1741 18.0067 14.1752C17.5328 14.184 17.0732 14.2236 16.6258 14.282C13.9006 14.6401 11.6781 15.831 10.1998 16.8722C9.62616 17.2754 9.1655 17.6544 8.8211 17.9585C8.66607 18.0951 8.53319 18.2185 8.42799 18.3199C8.22977 18.5105 8.12014 18.6294 8.10796 18.6416L8.03487 18.722L8.02491 18.8299C7.98836 19.2167 7.9939 19.6078 8.02934 20C8.37373 19.6959 8.83439 19.318 9.40801 18.9137C11.1288 17.7018 13.8563 16.2817 17.215 16.2167C17.2869 16.2156 17.36 16.2156 17.432 16.2145C18.1164 15.3595 18.5937 14.8241 18.6789 14.7282C18.6867 14.7194 18.6922 14.7139 18.6933 14.7117L19.1562 14.2027C19.1529 14.1961 19.1507 14.1895 19.1473 14.184L18.4608 14.1707Z" fill="#5EF6FF"/>
<path d="M34.8 16.812C35.04 16.94 35.308 17.048 35.604 17.136C35.908 17.216 36.212 17.256 36.516 17.256C36.78 17.256 37.028 17.232 37.26 17.184C37.492 17.128 37.692 17.044 37.86 16.932C38.036 16.812 38.172 16.664 38.268 16.488C38.372 16.312 38.424 16.104 38.424 15.864C38.424 15.536 38.312 15.268 38.088 15.06C37.872 14.852 37.6 14.668 37.272 14.508C36.944 14.348 36.588 14.192 36.204 14.04C35.82 13.888 35.464 13.708 35.136 13.5C34.808 13.292 34.532 13.04 34.308 12.744C34.092 12.44 33.984 12.056 33.984 11.592C33.984 11.264 34.048 10.968 34.176 10.704C34.312 10.44 34.5 10.216 34.74 10.032C34.98 9.848 35.268 9.708 35.604 9.612C35.948 9.508 36.328 9.456 36.744 9.456C37.224 9.456 37.66 9.492 38.052 9.564C38.444 9.628 38.756 9.716 38.988 9.828L39.012 9.816V9.84H39.024L39.012 9.876V11.796H38.124V10.512C37.924 10.464 37.704 10.424 37.464 10.392C37.224 10.36 36.968 10.344 36.696 10.344C36.432 10.344 36.192 10.376 35.976 10.44C35.768 10.504 35.588 10.592 35.436 10.704C35.292 10.808 35.18 10.932 35.1 11.076C35.02 11.22 34.98 11.372 34.98 11.532C34.98 11.844 35.088 12.104 35.304 12.312C35.528 12.52 35.804 12.708 36.132 12.876C36.46 13.036 36.816 13.196 37.2 13.356C37.584 13.516 37.94 13.704 38.268 13.92C38.596 14.128 38.868 14.38 39.084 14.676C39.308 14.972 39.42 15.34 39.42 15.78C39.42 16.14 39.352 16.464 39.216 16.752C39.088 17.04 38.9 17.288 38.652 17.496C38.412 17.704 38.112 17.864 37.752 17.976C37.4 18.088 37 18.144 36.552 18.144C36.248 18.144 35.96 18.12 35.688 18.072C35.416 18.024 35.164 17.964 34.932 17.892C34.708 17.82 34.504 17.744 34.32 17.664C34.144 17.584 34.004 17.516 33.9 17.46L33.912 17.424V15.48H34.8V16.812ZM45.6913 10.512C45.5553 10.456 45.4033 10.416 45.2353 10.392C45.0753 10.36 44.8793 10.344 44.6473 10.344C44.3193 10.344 43.9953 10.404 43.6753 10.524C43.3633 10.644 43.0833 10.84 42.8353 11.112C42.5953 11.384 42.3993 11.74 42.2473 12.18C42.1033 12.62 42.0313 13.16 42.0313 13.8C42.0313 14.376 42.0953 14.88 42.2233 15.312C42.3593 15.744 42.5433 16.104 42.7753 16.392C43.0153 16.68 43.2993 16.896 43.6273 17.04C43.9633 17.184 44.3353 17.256 44.7433 17.256C44.9513 17.256 45.1433 17.24 45.3193 17.208C45.5033 17.168 45.6713 17.116 45.8233 17.052V15.852H46.7113V17.472L46.7233 17.496C46.4833 17.68 46.1793 17.836 45.8113 17.964C45.4433 18.084 44.9953 18.144 44.4673 18.144C43.9633 18.144 43.4953 18.06 43.0633 17.892C42.6393 17.716 42.2713 17.452 41.9593 17.1C41.6473 16.748 41.4033 16.3 41.2273 15.756C41.0593 15.204 40.9753 14.552 40.9753 13.8C40.9753 13.016 41.0713 12.352 41.2633 11.808C41.4553 11.256 41.7153 10.808 42.0433 10.464C42.3713 10.112 42.7513 9.856 43.1833 9.696C43.6233 9.536 44.0913 9.456 44.5873 9.456C44.8593 9.456 45.0953 9.468 45.2953 9.492C45.4953 9.508 45.6713 9.536 45.8233 9.576C45.9753 9.608 46.1073 9.652 46.2193 9.708C46.3393 9.764 46.4553 9.828 46.5673 9.9H46.5793V11.796H45.6913V10.512ZM48.5906 9.684C48.8946 9.628 49.2426 9.584 49.6346 9.552C50.0346 9.52 50.3986 9.504 50.7266 9.504C51.0946 9.504 51.4426 9.544 51.7706 9.624C52.1066 9.704 52.3986 9.836 52.6466 10.02C52.9026 10.204 53.1066 10.444 53.2586 10.74C53.4106 11.036 53.4866 11.396 53.4866 11.82C53.4866 12.148 53.4306 12.44 53.3186 12.696C53.2146 12.944 53.0826 13.16 52.9226 13.344C52.7706 13.52 52.6106 13.664 52.4426 13.776C52.2746 13.888 52.1306 13.968 52.0106 14.016L54.2306 18H53.0666L51.0866 14.304H49.5866V18H48.5906V9.684ZM50.7506 10.368C50.6466 10.368 50.5386 10.368 50.4266 10.368C50.3146 10.368 50.2066 10.372 50.1026 10.38C49.9986 10.388 49.8986 10.396 49.8026 10.404C49.7146 10.412 49.6426 10.424 49.5866 10.44V13.536H50.5226C51.0746 13.536 51.5306 13.4 51.8906 13.128C52.2506 12.856 52.4306 12.432 52.4306 11.856C52.4306 11.424 52.2826 11.068 51.9866 10.788C51.6906 10.508 51.2786 10.368 50.7506 10.368ZM55.3059 9.6H61.0659V10.488H58.6779V17.112H61.0659V18H55.3059V17.112H57.6819V10.488H55.3059V9.6ZM62.8613 9.6H63.8573V17.112H67.2533V15.024H68.1413V18H62.8613V9.6ZM70.2606 9.6H75.1926V10.488H71.2566V13.236H74.8926V14.124H71.2566V17.112H75.2526V18H70.2606V9.6ZM77.3719 9.684C77.6759 9.612 78.0039 9.564 78.3559 9.54C78.7079 9.516 79.0559 9.504 79.3999 9.504C79.7679 9.504 80.1399 9.54 80.5159 9.612C80.8999 9.684 81.2479 9.816 81.5599 10.008C81.8719 10.2 82.1239 10.464 82.3159 10.8C82.5159 11.136 82.6159 11.564 82.6159 12.084C82.6159 12.596 82.5239 13.028 82.3399 13.38C82.1559 13.732 81.9119 14.02 81.6079 14.244C81.3039 14.46 80.9559 14.616 80.5639 14.712C80.1719 14.808 79.7679 14.856 79.3519 14.856C79.3119 14.856 79.2439 14.856 79.1479 14.856C79.0599 14.856 78.9639 14.856 78.8599 14.856C78.7639 14.848 78.6679 14.84 78.5719 14.832C78.4759 14.824 78.4079 14.816 78.3679 14.808V18H77.3719V9.684ZM79.4239 10.368C79.2159 10.368 79.0159 10.372 78.8239 10.38C78.6319 10.388 78.4799 10.408 78.3679 10.44V13.92C78.4079 13.936 78.4719 13.948 78.5599 13.956C78.6479 13.956 78.7399 13.96 78.8359 13.968C78.9319 13.968 79.0239 13.968 79.1119 13.968C79.1999 13.968 79.2639 13.968 79.3039 13.968C79.5759 13.968 79.8439 13.944 80.1079 13.896C80.3799 13.84 80.6239 13.744 80.8399 13.608C81.0559 13.472 81.2279 13.28 81.3559 13.032C81.4919 12.784 81.5599 12.468 81.5599 12.084C81.5599 11.756 81.4959 11.484 81.3679 11.268C81.2479 11.044 81.0839 10.868 80.8759 10.74C80.6759 10.604 80.4479 10.508 80.1919 10.452C79.9359 10.396 79.6799 10.368 79.4239 10.368ZM88.8872 9.6H89.8472V15.204C89.8472 15.708 89.7792 16.144 89.6432 16.512C89.5152 16.88 89.3312 17.184 89.0912 17.424C88.8512 17.656 88.5592 17.828 88.2152 17.94C87.8712 18.052 87.4912 18.108 87.0752 18.108C86.0832 18.108 85.3352 17.884 84.8312 17.436C84.3352 16.988 84.0872 16.308 84.0872 15.396V9.6H85.0832V14.928C85.0832 15.352 85.1232 15.712 85.2032 16.008C85.2912 16.296 85.4152 16.532 85.5752 16.716C85.7432 16.892 85.9512 17.02 86.1992 17.1C86.4552 17.18 86.7512 17.22 87.0872 17.22C87.7352 17.22 88.1952 17.044 88.4672 16.692C88.7472 16.332 88.8872 15.744 88.8872 14.928V9.6ZM92.9145 12.744L92.2665 11.532H92.2185L92.3385 12.744V18H91.4025V9.6H92.0505L95.4345 14.832L96.0585 15.984H96.1185L95.9865 14.832V9.6H96.9225V18H96.2745L92.9145 12.744ZM100.698 14.112H99.7738V18H98.7778V9.6H99.7738V13.344H100.674L103.374 9.6H104.526L101.562 13.596L104.898 18H103.638L100.698 14.112Z" fill="#5EF6FF"/>
<rect opacity="0.5" x="33" y="20" width="72" height="1" fill="#5EF6FF"/>
</g>
</svg>
